<svg height='300px' width='300px'  fill="#000000" xmlns="http://www.w3.org/2000/svg" xmlns:xlink="http://www.w3.org/1999/xlink" version="1.1" x="0px" y="0px" viewBox="0 0 100 100" style="enable-background:new 0 0 100 100;" xml:space="preserve"><path d="M22.0390625,90c6.6386719,0,12.0390625-5.4008789,12.0390625-12.0390625  c0-6.3011475-4.8676758-11.4778442-11.0390625-11.9888916v-10.805542H49v10.805542  c-6.1713867,0.5110474-11.0390625,5.6877441-11.0390625,11.9888916C37.9609375,84.5991211,43.3613281,90,50,90  s12.0390625-5.4008789,12.0390625-12.0390625c0-6.3011475-4.8676758-11.4778442-11.0390625-11.9888916v-10.805542h25.9609375  v10.805542C70.7895508,66.4830933,65.921875,71.65979,65.921875,77.9609375C65.921875,84.5991211,71.3222656,90,77.9609375,90  S90,84.5991211,90,77.9609375c0-6.3011475-4.8676758-11.4778442-11.0390625-11.9888916v-11.805542c0-0.5522461-0.4472656-1-1-1H51  V41.4493408C59.2181396,40.9293823,65.75,34.0970459,65.75,25.75C65.75,17.0654297,58.6845703,10,50,10  s-15.75,7.0654297-15.75,15.75c0,8.3470459,6.5318604,15.1793823,14.75,15.6993408v11.7171631H22.0390625  c-0.5527344,0-1,0.4477539-1,1v11.805542C14.8676758,66.4830933,10,71.65979,10,77.9609375  C10,84.5991211,15.4003906,90,22.0390625,90z M60.0390625,77.9609375C60.0390625,83.496582,55.5351562,88,50,88  s-10.0390625-4.503418-10.0390625-10.0390625S44.4648438,67.9213867,50,67.9213867S60.0390625,72.425293,60.0390625,77.9609375z   M88,77.9609375C88,83.496582,83.4960938,88,77.9609375,88S67.921875,83.496582,67.921875,77.9609375  s4.5039062-10.0395508,10.0390625-10.0395508S88,72.425293,88,77.9609375z M36.25,25.75C36.25,18.168457,42.4179688,12,50,12  s13.75,6.168457,13.75,13.75S57.5820312,39.5,50,39.5S36.25,33.331543,36.25,25.75z M22.0390625,67.9213867  c5.5351562,0,10.0390625,4.5039062,10.0390625,10.0395508S27.5742188,88,22.0390625,88S12,83.496582,12,77.9609375  S16.5039062,67.9213867,22.0390625,67.9213867z"></path></svg>