<?xml version="1.0" standalone="no"?>
<svg xmlns="http://www.w3.org/2000/svg" viewBox="0 0 50 50" width="50" height="50" preserveAspectRatio="xMidYMid meet" style="width: 100%; height: 100%; transform: translate3d(0px, 0px, 0px);">
	<defs>
		<clipPath id="__lottie_element_2">
			<rect width="50" height="50" x="0" y="0"></rect>
		</clipPath>
	</defs>
	<g clip-path="url(#__lottie_element_2)">
		<g transform="matrix(1,0,0,1,0,0)" opacity="1" style="display: block;">
			<g opacity="1" transform="matrix(1,0,0,1,0,0)">
				<path stroke-linecap="round" stroke-linejoin="round" fill-opacity="0" stroke="#a8bd9d" stroke-opacity="1" stroke-width="2" d=" M14,45.66699981689453 C14,45.66699981689453 14,32.66699981689453 14,32.66699981689453"></path>
			</g>
			<g opacity="1" transform="matrix(1,0,0,1,14,34)">
				<path stroke-linecap="round" stroke-linejoin="round" fill-opacity="0" stroke="#a8bd9d" stroke-opacity="1" stroke-width="2" d=" M-5,-13 C-5,-13 -5,11.333000183105469 -5,11.333000183105469 C-5,12.253999710083008 -4.254000186920166,13 -3.3329999446868896,13 C-3.3329999446868896,13 -1.6660000085830688,13 -1.6660000085830688,13 C-0.7459999918937683,13 0,12.253999710083008 0,11.333000183105469 C0,12.253999710083008 0.7459999918937683,13 1.6670000553131104,13 C1.6670000553131104,13 3.3340001106262207,13 3.3340001106262207,13 C4.254000186920166,13 5,12.253999710083008 5,11.333000183105469 C5,11.333000183105469 5,-3 5,-3"></path>
			</g>
			<g opacity="1" transform="matrix(1,0,0,1,14,7)">
				<path stroke-linecap="round" stroke-linejoin="round" fill-opacity="0" stroke="#a8bd9d" stroke-opacity="1" stroke-width="2" d=" M0,-4 C-2.2090001106262207,-4 -4,-2.2090001106262207 -4,0 C-4,2.2090001106262207 -2.2090001106262207,4 0,4 C2.2090001106262207,4 4,2.2090001106262207 4,0 C4,-2.2090001106262207 2.2090001106262207,-4 0,-4z"></path>
			</g>
			<g opacity="1" transform="matrix(1,0,0,1,13.038999557495117,22.5)">
				<path stroke-linecap="round" stroke-linejoin="round" fill-opacity="0" stroke="#a8bd9d" stroke-opacity="1" stroke-width="2" d=" M8.038999557495117,-7.686999797821045 C7.309000015258789,-8.199000358581543 6.419000148773193,-8.5 5.460999965667725,-8.5 C5.460999965667725,-8.5 -3.5390000343322754,-8.5 -3.5390000343322754,-8.5 C-6.020999908447266,-8.5 -8.038999557495117,-6.480999946594238 -8.038999557495117,-4 C-8.038999557495117,-4 -8.038999557495117,8.5 -8.038999557495117,8.5"></path>
			</g>
			<g opacity="1" transform="matrix(1,0,0,1,7,32)">
				<path stroke-linecap="round" stroke-linejoin="round" fill-opacity="0" stroke="#a8bd9d" stroke-opacity="1" stroke-width="2" d=" M-2,-1 C-2,0.10499999672174454 -1.1050000190734863,1 0,1 C1.1050000190734863,1 2,0.10499999672174454 2,-1"></path>
			</g>
			<g opacity="1" transform="matrix(1,0,0,1,35,7)">
				<path stroke-linecap="round" stroke-linejoin="round" fill-opacity="0" stroke="#a8bd9d" stroke-opacity="1" stroke-width="2" d=" M0,-4 C-2.2090001106262207,-4 -4,-2.2090001106262207 -4,0 C-4,2.2090001106262207 -2.2090001106262207,4 0,4 C2.2090001106262207,4 4,2.2090001106262207 4,0 C4,-2.2090001106262207 2.2090001106262207,-4 0,-4z"></path>
			</g>
			<g opacity="1" transform="matrix(1,0,0,1,25,20)">
				<path stroke-linecap="round" stroke-linejoin="round" fill-opacity="0" stroke="#a8bd9d" stroke-opacity="1" stroke-width="2" d=" M0,-3 C-1.656999945640564,-3 -3,-1.656999945640564 -3,0 C-3,1.656999945640564 -1.656999945640564,3 0,3 C1.656999945640564,3 3,1.656999945640564 3,0 C3,-1.656999945640564 1.656999945640564,-3 0,-3z"></path>
			</g>
			<g opacity="1" transform="matrix(1,0,0,1,37,41.5)">
				<path stroke-linecap="round" stroke-linejoin="round" fill-opacity="0" stroke="#a8bd9d" stroke-opacity="1" stroke-width="2" d=" M2,-5.5 C2,-5.5 -2,-5.5 -2,-5.5 C-2,-5.5 -2,3.5 -2,3.5 C-2,4.605000019073486 -1.1050000190734863,5.5 0,5.5 C1.1050000190734863,5.5 2,4.605000019073486 2,3.5 C2,3.5 2,-5.5 2,-5.5z"></path>
			</g>
			<g opacity="1" transform="matrix(1,0,0,1,25,36.5)">
				<path stroke-linecap="round" stroke-linejoin="round" fill-opacity="0" stroke="#a8bd9d" stroke-opacity="1" stroke-width="2" d=" M1.5,10.5 C1.5,10.5 1.5,10.5 1.5,10.5 C2.328000068664551,10.5 3,9.82800006866455 3,9 C3,9 3,1.5 3,1.5 C3,1.5 4,1.5 4,1.5 C5.105000019073486,1.5 6,0.6050000190734863 6,-0.5 C6,-0.5 6,-7.5 6,-7.5 C6,-9.156999588012695 4.6570000648498535,-10.5 3,-10.5 C3,-10.5 -3,-10.5 -3,-10.5 C-4.6570000648498535,-10.5 -6,-9.156999588012695 -6,-7.5 C-6,-7.5 -6,-0.5 -6,-0.5 C-6,0.6050000190734863 -5.105000019073486,1.5 -4,1.5 C-4,1.5 -3,1.5 -3,1.5 C-3,1.5 -3,9 -3,9 C-3,9.82800006866455 -2.328000068664551,10.5 -1.5,10.5 C-1.5,10.5 1.5,10.5 1.5,10.5z"></path>
			</g>
			<g opacity="1" transform="matrix(1,0,0,1,33,41.5)">
				<path stroke-linecap="round" stroke-linejoin="round" fill-opacity="0" stroke="#a8bd9d" stroke-opacity="1" stroke-width="2" d=" M2,-5.5 C2,-5.5 -2,-5.5 -2,-5.5 C-2,-5.5 -2,3.5 -2,3.5 C-2,4.605000019073486 -1.1050000190734863,5.5 0,5.5 C1.1050000190734863,5.5 2,4.605000019073486 2,3.5 C2,3.5 2,-5.5 2,-5.5z"></path>
			</g>
			<g opacity="1" transform="matrix(1,0,0,1,39.80400085449219,29.006999969482422)">
				<path stroke-linecap="round" stroke-linejoin="round" fill-opacity="0" stroke="#a8bd9d" stroke-opacity="1" stroke-width="2" d=" M-3.803999900817871,6.993000030517578 C-3.803999900817871,6.993000030517578 2.805000066757202,6.993000030517578 2.805000066757202,6.993000030517578 C3.11899995803833,6.993000030517578 3.4059998989105225,6.833000183105469 3.5829999446868896,6.559999942779541 C3.759000062942505,6.285999774932861 3.803999900817871,5.932000160217285 3.7070000171661377,5.603000164031982 C3.7070000171661377,5.603000164031982 -0.46799999475479126,-6.993000030517578 -0.46799999475479126,-6.993000030517578"></path>
			</g>
			<g opacity="1" transform="matrix(1,0,0,1,32.665000915527344,14.576000213623047)">
				<path stroke-linecap="round" stroke-linejoin="round" fill-opacity="0" stroke="#a8bd9d" stroke-opacity="1" stroke-width="2" d=" M-3.3350000381469727,0.5770000219345093 C-2.736999988555908,-0.057999998331069946 -1.875,-0.5770000219345093 -0.6650000214576721,-0.5770000219345093 C-0.6650000214576721,-0.5770000219345093 3.3350000381469727,-0.5770000219345093 3.3350000381469727,-0.5770000219345093"></path>
			</g>
		</g>
		<g transform="matrix(1,0,0,1,0,0)" opacity="1" style="display: block;">
			<g opacity="1" transform="matrix(1,0,0,1,41.10900115966797,23)">
				<path stroke-linecap="round" stroke-linejoin="round" fill-opacity="0" stroke="#a8bd9d" stroke-opacity="1" stroke-width="2" d=" M-5.109000205993652,-9 C-5.109000205993652,-9 -3.1089999675750732,-9 -3.1089999675750732,-9 C-0.6919999718666077,-9 0.33899998664855957,-6.934000015258789 0.640999972820282,-6 C0.640999972820282,-6 0.703000009059906,-5.9679999351501465 2.11299991607666,-1.784999966621399"></path>
			</g>
			<g opacity="1" transform="matrix(1,0,0,1,41.10900115966797,23)">
				<path stroke-linecap="round" stroke-linejoin="round" fill-opacity="0" stroke="#a8bd9d" stroke-opacity="1" stroke-width="2" d=" M5.82787561416626,-0.33410876989364624 C5.631899833679199,1.1446828842163086 4.263303756713867,2.072272539138794 2.4761569499969482,2.107691526412964 C-0.9025682806968689,2.178166627883911 -1.7730000019073486,-0.9869999885559082 -1.7730000019073486,-0.9869999885559082"></path>
			</g>
		</g>
		<g transform="matrix(-0.9017202258110046,-0.43232008814811707,0.43232008814811707,-0.9017202258110046,72.58267974853516,62.398345947265625)" opacity="1" style="display: block;">
			<g opacity="1" transform="matrix(1,0,0,1,41.10900115966797,23)">
				<path stroke-linecap="round" stroke-linejoin="round" fill-opacity="0" stroke="#a8bd9d" stroke-opacity="1" stroke-width="2" d=" M3.0850000381469727,1.4950000047683716 C3.316999912261963,2.244999885559082 3.5480000972747803,2.934999942779541 3.9149999618530273,4.068999767303467 C4.380000114440918,5.506999969482422 3.6619999408721924,6.7729997634887695 2.2200000286102295,6.7729997634887695 C1.3630000352859497,6.7729997634887695 0.6349999904632568,6.2170000076293945 0.3779999911785126,5.446000099182129 C0.3779999911785126,5.446000099182129 0.36899998784065247,5.448999881744385 0.36899998784065247,5.448999881744385 C0.36899998784065247,5.448999881744385 -0.8560000061988831,1.7549999952316284 -0.8560000061988831,1.7549999952316284"></path>
			</g>
		</g>
	</g>
</svg>